<mxfile host="app.diagrams.net" modified="2021-11-08T02:12:15.828Z" agent="5.0 (Windows NT 10.0; Win64; x64) AppleWebKit/537.36 (KHTML, like Gecko) Chrome/95.0.4638.69 Safari/537.36" etag="tz-d6r9qM9UvG1uHRZpF" version="15.7.0" type="github">
  <diagram id="2OIqUkfFRX_1FqC52WyB" name="Page-1">
    <mxGraphModel dx="868" dy="450" grid="1" gridSize="10" guides="1" tooltips="1" connect="1" arrows="1" fold="1" page="1" pageScale="1" pageWidth="850" pageHeight="1100" math="0" shadow="0">
      <root>
        <mxCell id="0" />
        <mxCell id="1" parent="0" />
        <mxCell id="TUIIn2pRdFyR9W08cRNO-1" value="" style="ellipse;html=1;shape=startState;fillColor=#000000;strokeColor=#ff0000;" vertex="1" parent="1">
          <mxGeometry x="410" y="40" width="30" height="30" as="geometry" />
        </mxCell>
        <mxCell id="TUIIn2pRdFyR9W08cRNO-2" value="" style="edgeStyle=orthogonalEdgeStyle;html=1;verticalAlign=bottom;endArrow=open;endSize=8;strokeColor=#ff0000;rounded=0;" edge="1" source="TUIIn2pRdFyR9W08cRNO-1" parent="1">
          <mxGeometry relative="1" as="geometry">
            <mxPoint x="425" y="170" as="targetPoint" />
          </mxGeometry>
        </mxCell>
        <mxCell id="TUIIn2pRdFyR9W08cRNO-7" style="edgeStyle=orthogonalEdgeStyle;rounded=0;orthogonalLoop=1;jettySize=auto;html=1;entryX=0.5;entryY=0;entryDx=0;entryDy=0;entryPerimeter=0;" edge="1" parent="1" source="TUIIn2pRdFyR9W08cRNO-5" target="TUIIn2pRdFyR9W08cRNO-6">
          <mxGeometry relative="1" as="geometry" />
        </mxCell>
        <mxCell id="TUIIn2pRdFyR9W08cRNO-5" value="Login to inventory management system" style="points=[[0.25,0,0],[0.5,0,0],[0.75,0,0],[1,0.25,0],[1,0.5,0],[1,0.75,0],[0.75,1,0],[0.5,1,0],[0.25,1,0],[0,0.75,0],[0,0.5,0],[0,0.25,0]];shape=mxgraph.bpmn.task;whiteSpace=wrap;rectStyle=rounded;size=10;bpmnShapeType=call;" vertex="1" parent="1">
          <mxGeometry x="365" y="160" width="120" height="50" as="geometry" />
        </mxCell>
        <mxCell id="TUIIn2pRdFyR9W08cRNO-8" style="edgeStyle=orthogonalEdgeStyle;rounded=0;orthogonalLoop=1;jettySize=auto;html=1;" edge="1" parent="1" source="TUIIn2pRdFyR9W08cRNO-6">
          <mxGeometry relative="1" as="geometry">
            <mxPoint x="70" y="400" as="targetPoint" />
            <Array as="points">
              <mxPoint x="425" y="360" />
              <mxPoint x="70" y="360" />
            </Array>
          </mxGeometry>
        </mxCell>
        <mxCell id="TUIIn2pRdFyR9W08cRNO-9" style="edgeStyle=orthogonalEdgeStyle;rounded=0;orthogonalLoop=1;jettySize=auto;html=1;" edge="1" parent="1" source="TUIIn2pRdFyR9W08cRNO-6">
          <mxGeometry relative="1" as="geometry">
            <mxPoint x="760" y="400" as="targetPoint" />
            <Array as="points">
              <mxPoint x="425" y="360" />
              <mxPoint x="760" y="360" />
            </Array>
          </mxGeometry>
        </mxCell>
        <mxCell id="TUIIn2pRdFyR9W08cRNO-6" value="Check the user level and permission" style="points=[[0.25,0,0],[0.5,0,0],[0.75,0,0],[1,0.25,0],[1,0.5,0],[1,0.75,0],[0.75,1,0],[0.5,1,0],[0.25,1,0],[0,0.75,0],[0,0.5,0],[0,0.25,0]];shape=mxgraph.bpmn.task;whiteSpace=wrap;rectStyle=rounded;size=10;bpmnShapeType=call;" vertex="1" parent="1">
          <mxGeometry x="365" y="250" width="120" height="80" as="geometry" />
        </mxCell>
        <mxCell id="TUIIn2pRdFyR9W08cRNO-39" value="" style="edgeStyle=orthogonalEdgeStyle;rounded=0;orthogonalLoop=1;jettySize=auto;html=1;" edge="1" parent="1" source="TUIIn2pRdFyR9W08cRNO-10" target="TUIIn2pRdFyR9W08cRNO-23">
          <mxGeometry relative="1" as="geometry" />
        </mxCell>
        <mxCell id="TUIIn2pRdFyR9W08cRNO-10" value="Check permission" style="rhombus;whiteSpace=wrap;html=1;fillColor=#ffffc0;strokeColor=#ff0000;" vertex="1" parent="1">
          <mxGeometry x="10" y="400" width="120" height="70" as="geometry" />
        </mxCell>
        <mxCell id="TUIIn2pRdFyR9W08cRNO-11" value="no" style="edgeStyle=orthogonalEdgeStyle;html=1;align=left;verticalAlign=bottom;endArrow=open;endSize=8;strokeColor=#ff0000;rounded=0;" edge="1" source="TUIIn2pRdFyR9W08cRNO-10" parent="1">
          <mxGeometry x="-1" relative="1" as="geometry">
            <mxPoint x="160" y="640" as="targetPoint" />
          </mxGeometry>
        </mxCell>
        <mxCell id="TUIIn2pRdFyR9W08cRNO-12" value="yes" style="edgeStyle=orthogonalEdgeStyle;html=1;align=left;verticalAlign=top;endArrow=open;endSize=8;strokeColor=#ff0000;rounded=0;" edge="1" source="TUIIn2pRdFyR9W08cRNO-10" parent="1">
          <mxGeometry x="-0.3333" y="10" relative="1" as="geometry">
            <mxPoint x="70" y="500" as="targetPoint" />
            <mxPoint as="offset" />
          </mxGeometry>
        </mxCell>
        <mxCell id="TUIIn2pRdFyR9W08cRNO-20" style="edgeStyle=orthogonalEdgeStyle;rounded=0;orthogonalLoop=1;jettySize=auto;html=1;exitX=0;exitY=0.5;exitDx=0;exitDy=0;" edge="1" parent="1" source="TUIIn2pRdFyR9W08cRNO-14">
          <mxGeometry relative="1" as="geometry">
            <mxPoint x="670" y="430" as="targetPoint" />
          </mxGeometry>
        </mxCell>
        <mxCell id="TUIIn2pRdFyR9W08cRNO-40" value="" style="edgeStyle=orthogonalEdgeStyle;rounded=0;orthogonalLoop=1;jettySize=auto;html=1;" edge="1" parent="1" source="TUIIn2pRdFyR9W08cRNO-14" target="TUIIn2pRdFyR9W08cRNO-22">
          <mxGeometry relative="1" as="geometry" />
        </mxCell>
        <mxCell id="TUIIn2pRdFyR9W08cRNO-41" value="" style="edgeStyle=orthogonalEdgeStyle;rounded=0;orthogonalLoop=1;jettySize=auto;html=1;" edge="1" parent="1" source="TUIIn2pRdFyR9W08cRNO-14" target="TUIIn2pRdFyR9W08cRNO-22">
          <mxGeometry relative="1" as="geometry" />
        </mxCell>
        <mxCell id="TUIIn2pRdFyR9W08cRNO-14" value="Check permission" style="rhombus;whiteSpace=wrap;html=1;fillColor=#ffffc0;strokeColor=#ff0000;" vertex="1" parent="1">
          <mxGeometry x="680" y="400" width="120" height="60" as="geometry" />
        </mxCell>
        <mxCell id="TUIIn2pRdFyR9W08cRNO-15" value="no" style="edgeStyle=orthogonalEdgeStyle;html=1;align=left;verticalAlign=bottom;endArrow=open;endSize=8;strokeColor=#ff0000;rounded=0;" edge="1" source="TUIIn2pRdFyR9W08cRNO-14" parent="1">
          <mxGeometry x="-1" relative="1" as="geometry">
            <mxPoint x="820" y="640" as="targetPoint" />
            <Array as="points">
              <mxPoint x="820" y="430" />
            </Array>
          </mxGeometry>
        </mxCell>
        <mxCell id="TUIIn2pRdFyR9W08cRNO-16" value="yes" style="edgeStyle=orthogonalEdgeStyle;html=1;align=left;verticalAlign=top;endArrow=open;endSize=8;strokeColor=#ff0000;rounded=0;" edge="1" parent="1">
          <mxGeometry x="-0.3333" y="21" relative="1" as="geometry">
            <mxPoint x="739.5" y="490" as="targetPoint" />
            <mxPoint x="739.5" y="460" as="sourcePoint" />
            <mxPoint as="offset" />
          </mxGeometry>
        </mxCell>
        <mxCell id="TUIIn2pRdFyR9W08cRNO-66" value="" style="edgeStyle=orthogonalEdgeStyle;rounded=0;orthogonalLoop=1;jettySize=auto;html=1;" edge="1" parent="1" source="TUIIn2pRdFyR9W08cRNO-22" target="TUIIn2pRdFyR9W08cRNO-47">
          <mxGeometry relative="1" as="geometry">
            <Array as="points">
              <mxPoint x="740" y="620" />
              <mxPoint x="740" y="620" />
            </Array>
          </mxGeometry>
        </mxCell>
        <mxCell id="TUIIn2pRdFyR9W08cRNO-22" value="Make Payment" style="points=[[0.25,0,0],[0.5,0,0],[0.75,0,0],[1,0.25,0],[1,0.5,0],[1,0.75,0],[0.75,1,0],[0.5,1,0],[0.25,1,0],[0,0.75,0],[0,0.5,0],[0,0.25,0]];shape=mxgraph.bpmn.task;whiteSpace=wrap;rectStyle=rounded;size=10;bpmnShapeType=call;" vertex="1" parent="1">
          <mxGeometry x="680" y="490" width="120" height="80" as="geometry" />
        </mxCell>
        <mxCell id="TUIIn2pRdFyR9W08cRNO-62" style="edgeStyle=orthogonalEdgeStyle;rounded=0;orthogonalLoop=1;jettySize=auto;html=1;entryX=0.051;entryY=-0.012;entryDx=0;entryDy=0;entryPerimeter=0;" edge="1" parent="1" source="TUIIn2pRdFyR9W08cRNO-23" target="TUIIn2pRdFyR9W08cRNO-47">
          <mxGeometry relative="1" as="geometry" />
        </mxCell>
        <mxCell id="TUIIn2pRdFyR9W08cRNO-23" value="Manages Application" style="points=[[0.25,0,0],[0.5,0,0],[0.75,0,0],[1,0.25,0],[1,0.5,0],[1,0.75,0],[0.75,1,0],[0.5,1,0],[0.25,1,0],[0,0.75,0],[0,0.5,0],[0,0.25,0]];shape=mxgraph.bpmn.task;whiteSpace=wrap;rectStyle=rounded;size=10;bpmnShapeType=call;" vertex="1" parent="1">
          <mxGeometry x="10" y="500" width="120" height="80" as="geometry" />
        </mxCell>
        <mxCell id="TUIIn2pRdFyR9W08cRNO-24" value="Check Permission" style="rhombus;whiteSpace=wrap;html=1;fillColor=#ffffc0;strokeColor=#ff0000;" vertex="1" parent="1">
          <mxGeometry x="180" y="400" width="100" height="60" as="geometry" />
        </mxCell>
        <mxCell id="TUIIn2pRdFyR9W08cRNO-25" value="no" style="edgeStyle=orthogonalEdgeStyle;html=1;align=left;verticalAlign=bottom;endArrow=open;endSize=8;strokeColor=#ff0000;rounded=0;" edge="1" source="TUIIn2pRdFyR9W08cRNO-24" parent="1">
          <mxGeometry x="-1" relative="1" as="geometry">
            <mxPoint x="310" y="640" as="targetPoint" />
          </mxGeometry>
        </mxCell>
        <mxCell id="TUIIn2pRdFyR9W08cRNO-26" value="yes" style="edgeStyle=orthogonalEdgeStyle;html=1;align=left;verticalAlign=top;endArrow=open;endSize=8;strokeColor=#ff0000;rounded=0;" edge="1" source="TUIIn2pRdFyR9W08cRNO-24" parent="1">
          <mxGeometry x="-0.3333" relative="1" as="geometry">
            <mxPoint x="240" y="520" as="targetPoint" />
            <mxPoint as="offset" />
          </mxGeometry>
        </mxCell>
        <mxCell id="TUIIn2pRdFyR9W08cRNO-28" value="" style="shape=mxgraph.lean_mapping.electronic_info_flow_edge;html=1;rounded=0;" edge="1" parent="1">
          <mxGeometry width="160" relative="1" as="geometry">
            <mxPoint x="424" y="360" as="sourcePoint" />
            <mxPoint x="424" y="400" as="targetPoint" />
          </mxGeometry>
        </mxCell>
        <mxCell id="TUIIn2pRdFyR9W08cRNO-29" value="" style="shape=mxgraph.lean_mapping.electronic_info_flow_edge;html=1;rounded=0;" edge="1" parent="1">
          <mxGeometry width="160" relative="1" as="geometry">
            <mxPoint x="240" y="360" as="sourcePoint" />
            <mxPoint x="240" y="400" as="targetPoint" />
          </mxGeometry>
        </mxCell>
        <mxCell id="TUIIn2pRdFyR9W08cRNO-63" style="edgeStyle=orthogonalEdgeStyle;rounded=0;orthogonalLoop=1;jettySize=auto;html=1;entryX=0.25;entryY=0;entryDx=0;entryDy=0;entryPerimeter=0;" edge="1" parent="1" source="TUIIn2pRdFyR9W08cRNO-35" target="TUIIn2pRdFyR9W08cRNO-47">
          <mxGeometry relative="1" as="geometry" />
        </mxCell>
        <mxCell id="TUIIn2pRdFyR9W08cRNO-35" value="Manages Inventory" style="points=[[0.25,0,0],[0.5,0,0],[0.75,0,0],[1,0.25,0],[1,0.5,0],[1,0.75,0],[0.75,1,0],[0.5,1,0],[0.25,1,0],[0,0.75,0],[0,0.5,0],[0,0.25,0]];shape=mxgraph.bpmn.task;whiteSpace=wrap;rectStyle=rounded;size=10;bpmnShapeType=call;" vertex="1" parent="1">
          <mxGeometry x="170" y="500" width="120" height="80" as="geometry" />
        </mxCell>
        <mxCell id="TUIIn2pRdFyR9W08cRNO-43" value="Check Permission" style="rhombus;whiteSpace=wrap;html=1;fillColor=#ffffc0;strokeColor=#ff0000;" vertex="1" parent="1">
          <mxGeometry x="360" y="400" width="110" height="70" as="geometry" />
        </mxCell>
        <mxCell id="TUIIn2pRdFyR9W08cRNO-44" value="no" style="edgeStyle=orthogonalEdgeStyle;html=1;align=left;verticalAlign=bottom;endArrow=open;endSize=8;strokeColor=#ff0000;rounded=0;" edge="1" source="TUIIn2pRdFyR9W08cRNO-43" parent="1">
          <mxGeometry x="-1" relative="1" as="geometry">
            <mxPoint x="490" y="640" as="targetPoint" />
          </mxGeometry>
        </mxCell>
        <mxCell id="TUIIn2pRdFyR9W08cRNO-45" value="yes" style="edgeStyle=orthogonalEdgeStyle;html=1;align=left;verticalAlign=top;endArrow=open;endSize=8;strokeColor=#ff0000;rounded=0;" edge="1" source="TUIIn2pRdFyR9W08cRNO-43" parent="1">
          <mxGeometry x="-0.3333" y="15" relative="1" as="geometry">
            <mxPoint x="415" y="500" as="targetPoint" />
            <mxPoint as="offset" />
          </mxGeometry>
        </mxCell>
        <mxCell id="TUIIn2pRdFyR9W08cRNO-65" style="edgeStyle=orthogonalEdgeStyle;rounded=0;orthogonalLoop=1;jettySize=auto;html=1;entryX=0.481;entryY=0;entryDx=0;entryDy=0;entryPerimeter=0;" edge="1" parent="1" source="TUIIn2pRdFyR9W08cRNO-46" target="TUIIn2pRdFyR9W08cRNO-47">
          <mxGeometry relative="1" as="geometry">
            <mxPoint x="415" y="630" as="targetPoint" />
          </mxGeometry>
        </mxCell>
        <mxCell id="TUIIn2pRdFyR9W08cRNO-46" value="Manages Purchase/Receiving Stock" style="points=[[0.25,0,0],[0.5,0,0],[0.75,0,0],[1,0.25,0],[1,0.5,0],[1,0.75,0],[0.75,1,0],[0.5,1,0],[0.25,1,0],[0,0.75,0],[0,0.5,0],[0,0.25,0]];shape=mxgraph.bpmn.task;whiteSpace=wrap;rectStyle=rounded;size=10;bpmnShapeType=call;" vertex="1" parent="1">
          <mxGeometry x="355" y="500" width="120" height="80" as="geometry" />
        </mxCell>
        <mxCell id="TUIIn2pRdFyR9W08cRNO-69" style="edgeStyle=orthogonalEdgeStyle;rounded=0;orthogonalLoop=1;jettySize=auto;html=1;" edge="1" parent="1" source="TUIIn2pRdFyR9W08cRNO-47" target="TUIIn2pRdFyR9W08cRNO-67">
          <mxGeometry relative="1" as="geometry" />
        </mxCell>
        <mxCell id="TUIIn2pRdFyR9W08cRNO-47" value="Logout from the inventory management system" style="points=[[0.25,0,0],[0.5,0,0],[0.75,0,0],[1,0.25,0],[1,0.5,0],[1,0.75,0],[0.75,1,0],[0.5,1,0],[0.25,1,0],[0,0.75,0],[0,0.5,0],[0,0.25,0]];shape=mxgraph.bpmn.task;whiteSpace=wrap;rectStyle=rounded;size=10;bpmnShapeType=call;" vertex="1" parent="1">
          <mxGeometry x="30" y="640" width="800" height="80" as="geometry" />
        </mxCell>
        <mxCell id="TUIIn2pRdFyR9W08cRNO-67" value="" style="ellipse;html=1;shape=endState;fillColor=#000000;strokeColor=#ff0000;" vertex="1" parent="1">
          <mxGeometry x="415" y="800" width="30" height="30" as="geometry" />
        </mxCell>
      </root>
    </mxGraphModel>
  </diagram>
</mxfile>
